<svg xmlns="http://www.w3.org/2000/svg" xmlns:xlink="http://www.w3.org/1999/xlink" width="500" zoomAndPan="magnify" viewBox="0 0 375 149.999998" height="200" preserveAspectRatio="xMidYMid meet" version="1.0"><defs><g/><clipPath id="1c63482151"><path d="M 28.734375 28.710938 L 108.847656 28.710938 L 108.847656 59.609375 L 28.734375 59.609375 Z M 28.734375 28.710938 " clip-rule="nonzero"/></clipPath><clipPath id="392f6af20b"><path d="M 28.734375 62.722656 L 99.808594 62.722656 L 99.808594 88.988281 L 28.734375 88.988281 Z M 28.734375 62.722656 " clip-rule="nonzero"/></clipPath><clipPath id="bb1bcae20e"><path d="M 28.734375 92.863281 L 108.847656 92.863281 L 108.847656 123.761719 L 28.734375 123.761719 Z M 28.734375 92.863281 " clip-rule="nonzero"/></clipPath><clipPath id="e03590c327"><path d="M 321.179688 38.667969 L 350.769531 38.667969 L 350.769531 68.261719 L 321.179688 68.261719 Z M 321.179688 38.667969 " clip-rule="nonzero"/></clipPath></defs><g clip-path="url(#1c63482151)"><path fill="#ff1621" d="M 28.734375 28.710938 L 108.875 28.710938 L 108.875 59.609375 L 28.734375 59.609375 Z M 28.734375 28.710938 " fill-opacity="1" fill-rule="nonzero"/></g><g clip-path="url(#392f6af20b)"><path fill="#ff1621" d="M 28.734375 62.722656 L 99.832031 62.722656 L 99.832031 88.988281 L 28.734375 88.988281 Z M 28.734375 62.722656 " fill-opacity="1" fill-rule="nonzero"/></g><g clip-path="url(#bb1bcae20e)"><path fill="#ff1621" d="M 28.734375 92.863281 L 108.875 92.863281 L 108.875 123.761719 L 28.734375 123.761719 Z M 28.734375 92.863281 " fill-opacity="1" fill-rule="nonzero"/></g><g clip-path="url(#e03590c327)"><path fill="#737373" d="M 336.011719 38.667969 C 327.835938 38.667969 321.179688 45.328125 321.179688 53.5 C 321.179688 61.675781 327.835938 68.332031 336.011719 68.332031 C 344.183594 68.332031 350.84375 61.675781 350.84375 53.5 C 350.84375 45.328125 344.183594 38.667969 336.011719 38.667969 Z M 336.011719 41.636719 C 342.582031 41.636719 347.878906 46.929688 347.878906 53.5 C 347.878906 60.070312 342.582031 65.367188 336.011719 65.367188 C 329.441406 65.367188 324.144531 60.070312 324.144531 53.5 C 324.144531 46.929688 329.441406 41.636719 336.011719 41.636719 Z M 336.011719 46.09375 C 334.109375 46.09375 332.210938 46.816406 330.769531 48.257812 C 327.882812 51.140625 327.882812 55.859375 330.769531 58.742188 C 333.652344 61.628906 338.371094 61.628906 341.253906 58.742188 L 339.15625 56.648438 C 337.40625 58.398438 334.613281 58.398438 332.863281 56.648438 C 331.117188 54.898438 331.117188 52.105469 332.863281 50.355469 C 334.613281 48.605469 337.40625 48.605469 339.15625 50.355469 L 341.253906 48.257812 C 339.8125 46.816406 337.914062 46.09375 336.011719 46.09375 Z M 336.011719 46.09375 " fill-opacity="1" fill-rule="nonzero"/></g><g fill="#6d6e72" fill-opacity="1"><g transform="translate(124.033765, 108.282725)"><g><path d="M 5.71875 -71.140625 L 59.21875 -71.140625 L 59.21875 -56.796875 L 24.4375 -56.796875 L 24.4375 -39.15625 L 54.359375 -39.15625 L 54.359375 -24.5625 L 24.4375 -24.5625 L 24.4375 0 L 5.71875 0 Z M 5.71875 -71.140625 "/></g></g></g><g fill="#6d6e72" fill-opacity="1"><g transform="translate(185.918618, 108.282725)"><g><path d="M 32.46875 -12.15625 C 35.226562 -12.320312 37.5 -13.394531 39.28125 -15.375 C 41.0625 -17.363281 41.953125 -19.738281 41.953125 -22.5 L 41.953125 -51.6875 L 60.6875 -51.6875 L 60.6875 0 L 42.5625 0 L 41.953125 -4.984375 C 37.734375 -1.171875 32.34375 0.734375 25.78125 0.734375 C 19.132812 0.734375 13.925781 -1.3125 10.15625 -5.40625 C 6.382812 -9.5 4.5 -15.195312 4.5 -22.5 L 4.5 -51.6875 L 23.234375 -51.6875 L 23.234375 -24.203125 C 23.234375 -16.171875 26.3125 -12.15625 32.46875 -12.15625 Z M 32.46875 -12.15625 "/></g></g></g><g fill="#6d6e72" fill-opacity="1"><g transform="translate(252.301977, 108.282725)"><g><path d="M 24.203125 -17.390625 C 24.203125 -13.828125 26.507812 -11.878906 31.125 -11.546875 L 31.125 0.734375 C 28.9375 1.140625 26.425781 1.34375 23.59375 1.34375 C 11.507812 1.34375 5.46875 -6.359375 5.46875 -21.765625 L 5.46875 -71.140625 L 24.203125 -71.140625 Z M 24.203125 -17.390625 "/></g></g></g><g fill="#6d6e72" fill-opacity="1"><g transform="translate(285.8584, 108.282725)"><g><path d="M 24.203125 -17.390625 C 24.203125 -13.828125 26.507812 -11.878906 31.125 -11.546875 L 31.125 0.734375 C 28.9375 1.140625 26.425781 1.34375 23.59375 1.34375 C 11.507812 1.34375 5.46875 -6.359375 5.46875 -21.765625 L 5.46875 -71.140625 L 24.203125 -71.140625 Z M 24.203125 -17.390625 "/></g></g></g></svg>